<svg xmlns="http://www.w3.org/2000/svg" width="28" height="28" viewBox="0 0 28 28"><path fill="#E86F25" fill-rule="evenodd" d="M9.606 5.862c1.762 0 3.432.671 4.678 1.898a6.43 6.43 0 0 1 1.927 4.606 6.4 6.4 0 0 1-1.387 3.981l3.69 3.634c.307.3.307.833 0 1.134a.82.82 0 0 1-.587.231.82.82 0 0 1-.587-.231l-3.691-3.61a6.64 6.64 0 0 1-4.043 1.365 6.63 6.63 0 0 1-4.678-1.898A6.43 6.43 0 0 1 3 12.366c0-1.736.682-3.38 1.928-4.606a6.63 6.63 0 0 1 4.678-1.898m0 1.62a4.97 4.97 0 0 0-3.503 1.435 4.8 4.8 0 0 0-1.457 3.449c0 1.296.517 2.523 1.457 3.449a4.97 4.97 0 0 0 3.503 1.435c1.316 0 2.562-.51 3.502-1.435a4.8 4.8 0 0 0 1.458-3.45 4.8 4.8 0 0 0-1.458-3.448 4.97 4.97 0 0 0-3.502-1.435m13.946 7.857a.888.888 0 1 1 0 1.777H17.08c.174-.549.314-1.145.413-1.777zm0-5.17a.888.888 0 1 1 0 1.778l-5.672-.001a15 15 0 0 0-.157-1.777zm0-5.169a.888.888 0 1 1 0 1.777h-7.514c-.34-.722-.755-1.327-1.223-1.777z"/></svg>