<svg xmlns="http://www.w3.org/2000/svg" width="16" height="16" fill="none" viewBox="0 0 16 16"><g clip-path="url(#a)"><path fill="#9B65C3" d="M0 9.2a8 8 0 0 0 2.3 4.5l2.8-2.8A8 8 0 0 1 9 4z"/><path fill="#9B65C3" d="M5 11a8 8 0 0 1-5-1.8 8 8 0 0 0 2.3 4.5l2.8-2.8Z"/><path fill="#BE63C5" d="m5 11-2.7 2.7a8 8 0 0 0 4.5 2.2L12 7a8 8 0 0 1-7 4"/><path fill="#BF63C6" d="M6.1 15a8 8 0 0 1-1-4l-2.8 2.6A8 8 0 0 0 6.8 16z"/><path fill="#3278B1" d="M15.2.4 9.1 4a8 8 0 0 1-8 0 8 8 0 0 0-1 5.2 8 8 0 0 0 5 1.7L15.4.6z"/><path fill="#3278B2" d="M1 9.9a8 8 0 0 0 4 1A8 8 0 0 1 9 4L0 9.2z"/><path fill="#45A4EC" d="M1 4a8 8 0 0 0-1 5.2L9 4a8 8 0 0 1-8 0"/><path fill="#19BB7D" d="m15.4.6-.2-.2A2 2 0 0 0 14 0H8a8 8 0 0 0-7 4 8 8 0 0 0 8 0 8 8 0 0 0-4 7 8 8 0 0 0 7-4L15.6.7l-.2-.2Z"/><path fill="#08C7FB" d="M9 4 15.3.4 15 .3 1 4a8 8 0 0 0 8 0"/><path fill="#59F2F6" d="M14 0H8a8 8 0 0 0-7 4L15 .3a2 2 0 0 0-1-.3"/><path fill="#DA3757" d="M12 7 15.6.7l-.2-.2L5.1 10.9a8 8 0 0 0 1.7 5 8 8 0 0 0 5.2-1 8 8 0 0 1 0-8Z"/><path fill="#D33C4E" d="M5 11a8 8 0 0 0 1.8 5L12 7a8 8 0 0 1-7 4"/><path fill="#EE5A24" d="m12 7-5.2 9a8 8 0 0 0 5.2-1 8 8 0 0 1 0-8"/><path fill="#8BDF55" d="M15.7 1a2 2 0 0 0-.5-.6L9.1 4a8 8 0 0 0-4 7A8 8 0 0 0 12 7a8 8 0 0 0 0 8 8 8 0 0 0 4-7V2c0-.4-.1-.7-.3-1"/><path fill="#25C16F" d="M15.2.4 9.1 4a8 8 0 0 0-4 7L15.4.5l-.2-.2Z"/><path fill="#8BDF55" d="M5 11a8 8 0 0 0 7-4L15.6.7l-.2-.2L5.1 10.9Z"/><path fill="#FB0" d="M15.6.8 12 6.9a8 8 0 0 0 0 8L15.7 1z"/><path fill="#FFA800" d="M12 15a8 8 0 0 0 4-7V2c0-.4-.1-.7-.3-1z"/></g><defs><clipPath id="a"><path fill="#fff" d="M0 0h16v16H0z"/></clipPath></defs></svg>