<svg xmlns="http://www.w3.org/2000/svg" fill="none" viewBox="0 0 600 337"><path fill="#61DAFB" d="M385.219 151.754c0-4.941-6.187-9.623-15.674-12.527 2.189-9.668 1.216-17.361-3.071-19.824-.988-.578-2.143-.851-3.405-.851v3.39c.699 0 1.262.137 1.733.395 2.067 1.186 2.964 5.701 2.265 11.509-.167 1.429-.441 2.934-.775 4.469-2.98-.729-6.233-1.292-9.654-1.657-2.052-2.812-4.181-5.366-6.324-7.601 4.956-4.607 9.608-7.13 12.77-7.13v-3.39c-4.181 0-9.654 2.979-15.187 8.148-5.534-5.138-11.007-8.088-15.188-8.088v3.391c3.147 0 7.814 2.508 12.77 7.084a72 72 0 0 0-6.278 7.586c-3.436.365-6.689.927-9.669 1.672a46 46 0 0 1-.791-4.408c-.714-5.808.168-10.323 2.22-11.524.456-.274 1.049-.395 1.748-.395v-3.39c-1.277 0-2.432.273-3.436.851-4.272 2.463-5.229 10.14-3.025 19.779-9.456 2.918-15.613 7.586-15.613 12.511 0 4.941 6.187 9.624 15.674 12.527-2.189 9.669-1.216 17.362 3.071 19.825.988.577 2.143.851 3.42.851 4.181 0 9.654-2.98 15.188-8.149 5.534 5.139 11.007 8.088 15.187 8.088 1.277 0 2.433-.274 3.436-.851 4.272-2.463 5.23-10.14 3.025-19.779 9.426-2.904 15.583-7.586 15.583-12.512m-19.794-10.14a69 69 0 0 1-2.052 6.005 71 71 0 0 0-1.992-3.648 82 82 0 0 0-2.189-3.558c2.159.319 4.242.715 6.233 1.201m-6.963 16.191a81 81 0 0 1-3.663 5.807 79 79 0 0 1-6.872.304 85 85 0 0 1-6.841-.288 84 84 0 0 1-3.679-5.777 79 79 0 0 1-3.162-6.051 79 79 0 0 1 3.147-6.066 81 81 0 0 1 3.663-5.807 79 79 0 0 1 6.872-.304c2.296 0 4.591.106 6.841.289a84 84 0 0 1 3.679 5.776 79 79 0 0 1 3.162 6.051 85 85 0 0 1-3.147 6.066m4.911-1.976a65 65 0 0 1 2.098 6.05c-1.992.487-4.09.897-6.264 1.216a84 84 0 0 0 2.19-3.603 86 86 0 0 0 1.976-3.663m-15.416 16.221a63 63 0 0 1-4.226-4.865c1.368.061 2.767.106 4.181.106 1.429 0 2.843-.03 4.226-.106a59 59 0 0 1-4.181 4.865m-11.31-8.955a68 68 0 0 1-6.233-1.201 68 68 0 0 1 2.052-6.005 71 71 0 0 0 1.992 3.649 100 100 0 0 0 2.189 3.557m11.234-31.636a63 63 0 0 1 4.227 4.865 94 94 0 0 0-4.181-.107c-1.429 0-2.843.031-4.226.107a59 59 0 0 1 4.18-4.865m-11.25 8.954a86 86 0 0 0-2.189 3.603 86 86 0 0 0-1.976 3.649 65 65 0 0 1-2.098-6.051 74 74 0 0 1 6.263-1.201m-13.758 19.034c-5.382-2.296-8.863-5.306-8.863-7.693s3.481-5.412 8.863-7.692c1.308-.563 2.737-1.064 4.211-1.536.867 2.98 2.007 6.081 3.421 9.259-1.399 3.162-2.524 6.248-3.375 9.213a47 47 0 0 1-4.257-1.551m8.179 21.724c-2.067-1.185-2.964-5.701-2.265-11.508.167-1.429.441-2.934.775-4.47 2.98.73 6.233 1.293 9.654 1.658 2.052 2.812 4.181 5.366 6.324 7.601-4.956 4.606-9.608 7.13-12.77 7.13-.684-.015-1.262-.152-1.718-.411m36.061-11.584c.714 5.807-.168 10.323-2.22 11.524-.456.273-1.049.395-1.748.395-3.147 0-7.814-2.509-12.77-7.085a72 72 0 0 0 6.278-7.586c3.436-.365 6.689-.927 9.669-1.672.35 1.536.623 3.01.791 4.424m5.853-10.14c-1.308.562-2.737 1.064-4.211 1.535-.867-2.979-2.007-6.081-3.421-9.258 1.399-3.162 2.524-6.248 3.375-9.213 1.505.471 2.934.988 4.272 1.551 5.382 2.295 8.863 5.306 8.863 7.692-.015 2.387-3.497 5.412-8.878 7.693"/><path fill="#61DAFB" d="M347.912 158.702a6.947 6.947 0 1 0-.001-13.895 6.947 6.947 0 0 0 .001 13.895m-21.946 59.761v-14.545h5.455q1.675 0 2.812.582 1.144.583 1.726 1.634.59 1.044.589 2.436 0 1.399-.596 2.429-.59 1.023-1.74 1.584-1.151.554-2.827.554H327.5v-2.188h3.53q.98 0 1.605-.27.625-.276.923-.802.306-.533.306-1.307t-.306-1.321a1.94 1.94 0 0 0-.93-.838q-.625-.291-1.612-.291h-2.415v12.343zm7.514-6.59 3.601 6.59h-2.94l-3.537-6.59zm10.053 6.804q-1.64 0-2.833-.682a4.63 4.63 0 0 1-1.826-1.946q-.639-1.264-.639-2.976 0-1.683.639-2.955.647-1.278 1.804-1.988 1.158-.718 2.721-.718 1.008 0 1.903.327a4.3 4.3 0 0 1 1.591.994q.695.675 1.094 1.719.397 1.036.397 2.472v.788h-8.941v-1.733h6.477a2.76 2.76 0 0 0-.32-1.314 2.3 2.3 0 0 0-.873-.916q-.555-.334-1.293-.334-.788 0-1.385.384a2.63 2.63 0 0 0-.93.994 2.86 2.86 0 0 0-.334 1.342v1.513q0 .952.348 1.634.348.674.973 1.037.625.355 1.463.355a3.1 3.1 0 0 0 1.016-.157q.454-.163.788-.475.334-.313.504-.775l2.401.27a3.74 3.74 0 0 1-.867 1.662q-.632.704-1.619 1.094-.987.384-2.259.384m10.166.007q-1.038 0-1.868-.37a3.04 3.04 0 0 1-1.307-1.108q-.476-.731-.476-1.804 0-.923.341-1.527.34-.603.93-.966a4.7 4.7 0 0 1 1.328-.546 11 11 0 0 1 1.542-.277 64 64 0 0 0 1.555-.178q.597-.085.867-.256.277-.177.277-.547v-.042q0-.802-.476-1.243-.476-.44-1.371-.44-.945 0-1.499.412-.546.411-.738.973l-2.401-.341q.284-.994.938-1.662.653-.675 1.598-1.009a6.1 6.1 0 0 1 2.088-.341q.788 0 1.569.185.782.185 1.428.611.646.419 1.037 1.143.398.725.398 1.811v7.301h-2.472v-1.498h-.085a3.2 3.2 0 0 1-.661.852 3.2 3.2 0 0 1-1.058.632q-.632.235-1.484.235m.667-1.89q.774 0 1.343-.305.568-.312.873-.824a2.1 2.1 0 0 0 .313-1.115v-1.285q-.121.099-.412.184a6 6 0 0 1-.639.149q-.356.065-.704.114l-.603.085a4.5 4.5 0 0 0-1.03.256 1.7 1.7 0 0 0-.717.497q-.263.312-.263.81 0 .71.518 1.072.519.362 1.321.362m-23.755 25.883q-1.634 0-2.805-.718a4.8 4.8 0 0 1-1.797-1.981q-.625-1.272-.625-2.926 0-1.662.639-2.934.639-1.278 1.804-1.988 1.171-.718 2.77-.718 1.328 0 2.351.49a4 4 0 0 1 1.64 1.371q.61.88.696 2.06h-2.457a2.35 2.35 0 0 0-.71-1.314q-.555-.533-1.485-.533-.788 0-1.385.426-.596.42-.93 1.208-.327.788-.327 1.889 0 1.114.327 1.918.327.795.916 1.228.597.426 1.399.426.569 0 1.016-.213.454-.22.76-.632.305-.411.419-1.001h2.457q-.092 1.158-.682 2.052a4.04 4.04 0 0 1-1.605 1.392q-1.015.498-2.386.498m12.232-11.123v1.989h-6.272v-1.989zm-4.723-2.613h2.571v10.241q0 .519.156.796.163.27.426.369t.583.099q.241 0 .44-.035.205-.036.312-.064l.434 2.01a6 6 0 0 1-.59.156q-.377.085-.923.1-.966.028-1.74-.292a2.7 2.7 0 0 1-1.229-1.008q-.447-.682-.44-1.705z"/><path fill="#fff" d="M600 0H0v336.785h600z"/><mask id="a" width="600" height="337" x="0" y="0" maskUnits="userSpaceOnUse" style="mask-type:luminance"><path fill="#fff" d="M600 0H0v336.785h600z"/></mask><g mask="url(#a)"><g opacity=".7"><path fill="#EBEFF3" d="M43.398 273.401c13.83-8.542 26.264 1.455 40.806-1.299 24.401-4.643 18.417-39.703 22.831-57.336 10.283-41.051 40.529-59.125 77.894-70.659 38.142-11.755 67.847-40.055 101.019-60.777 29.215-18.196 65.215-27.13 88.398 4.725 15.441 21.254 16.275 53.951 37.013 71.305 12.049 10.047 26.02 4.782 36.524-5.264 14.885-14.174 30.899-29.428 53.133-27.49 16.504 1.422 32.199 14.362 33.883 30.817 3.139 30.646-36.074 48.736-37.471 78.253-2.167 45.556 75.85 5.109 90.065 42.099 8.256 21.482-1.153 54.335-22.447 65.068-8.33 4.193-17.722 5.722-26.975 6.891-29.837 3.874-60.09 5.174-89.78-.45-31.111-5.885-61.651-15.997-93.466-17.509-76.348-3.581-161.427 14.991-237.784 11.37-22.423-1.054-85.97 23.845-97.137 5.91-11.722-18.915 2.011-62.338 23.494-75.654"/><path fill="#CFD7DF" d="M78.574 31.232 63.455 111.4l15.327 2.89L93.9 34.123zm68.483 63.574H90.834v18.744h56.223zm-8.681-27.171H90.834v15.85h47.542z"/><path stroke="#92A2B1" stroke-miterlimit="10" stroke-width=".75" d="m75.589 38.493 18.417 3.482m-19.226.81 18.424 3.482M64.128 99.261l18.425 3.483m-19.226.809 18.409 3.483"/><path fill="#CFD7DF" d="M60.85 27.99h-3.123v87.408h3.123zm95.265 0h-3.123v87.408h3.123z"/><path fill="#92A2B1" d="M149.722 85.635H90.834v6.973h58.888z"/><path stroke="#fff" stroke-miterlimit="10" stroke-width=".75" d="M99.245 80.968a5.28 5.28 0 1 0 0-10.561 5.28 5.28 0 0 0 0 10.56Zm35.24 28.496a5.282 5.282 0 1 0-.002-10.564 5.282 5.282 0 0 0 .002 10.564Z"/><path stroke="#92A2B1" stroke-miterlimit="10" stroke-width=".75" d="M57.727 27.99v45.792m-27.931 41.877h162.31"/><path fill="#CFD7DF" d="m171.627 31.23-15.326 2.891 15.118 80.167 15.327-2.89z"/><path stroke="#92A2B1" stroke-miterlimit="10" stroke-width=".75" d="m156.196 41.975 18.409-3.482m-17.608 7.774 18.425-3.482m-7.773 59.959 18.425-3.483m-17.616 7.775 18.417-3.483M60.842 113.665V96.613m95.281 17.051V79.553m-17.731-11.918h-10.855m-25.839 27.67H90.834"/><path fill="#CFD7DF" d="M489.711 88.995c21.964 0 39.769-17.805 39.769-39.769S511.675 9.458 489.711 9.458s-39.768 17.805-39.768 39.768 17.805 39.769 39.768 39.769"/><path fill="#fff" d="M489.711 80.697c17.381 0 31.472-14.09 31.472-31.471s-14.091-31.471-31.472-31.471-31.471 14.09-31.471 31.47c0 17.382 14.09 31.472 31.471 31.472"/><path stroke="#92A2B1" stroke-miterlimit="10" stroke-width="1.03" d="M449.812 49.227a39.895 39.895 0 0 1 24.631-36.857 39.9 39.9 0 0 1 15.268-3.034m28.218 68.108a39.933 39.933 0 0 1-56.403 0m28.185-53.747v-5.942m0 57.008v5.935m31.488-31.472h-5.942m-51.083 0h-5.934m53.73 22.259-4.202-4.201m-36.114-36.115-4.202-4.202m0 44.518 4.202-4.201m36.114-36.115 4.202-4.202m-34.905 14.682 12.973 8.934 18.237-10.128"/></g><path fill="#fff" d="M292.193 277.488a12.96 12.96 0 0 1-8.084 2.984 12.27 12.27 0 0 1-8.085-2.984H14.444v21.703h575.182v-21.703z"/><path fill="#CFD7DF" d="M14.46 277.488h575.166v21.695l-11.19 37.602H4.087z" opacity=".6" style="mix-blend-mode:multiply"/><path stroke="#273139" stroke-linecap="round" stroke-linejoin="round" d="m564.956 171.883 16.856 16.782-10.104 5.804-42-41.812 5.755-10.129 16.586 16.513"/><path fill="#fff" d="M589.627 277.037H14.461v22.145h575.166zm-35.69-13.176h7.954a5.605 5.605 0 0 1 5.181 3.462 5.6 5.6 0 0 1 .427 2.146v7.397h-59.248v-7.397a5.6 5.6 0 0 1 1.642-3.966 5.63 5.63 0 0 1 3.965-1.642h33.581"/><path stroke="#273139" stroke-linecap="round" stroke-linejoin="round" d="M553.937 263.861h7.954a5.605 5.605 0 0 1 5.181 3.462 5.6 5.6 0 0 1 .427 2.146v7.397h-59.248v-7.397a5.6 5.6 0 0 1 1.642-3.966 5.63 5.63 0 0 1 3.965-1.642h33.581"/><path stroke="#273139" stroke-miterlimit="10" d="M518.362 263.828v-3.833a3.393 3.393 0 0 1 3.393-3.393h32.207a3.39 3.39 0 0 1 3.392 3.393v3.833"/><path fill="#fff" d="m576.491 202.471 5.052-9.335a6.404 6.404 0 0 0-2.592-8.681l-.179-.098a6.41 6.41 0 0 0-8.543 2.779l-12.85 24.695"/><path stroke="#273139" stroke-linecap="round" stroke-linejoin="round" d="m576.491 202.471 5.052-9.335a6.404 6.404 0 0 0-2.592-8.681l-.179-.098a6.41 6.41 0 0 0-8.543 2.779l-12.85 24.695"/><path fill="#fff" d="m551.828 222.499-17.787 34.185h13.079l21.703-40.054"/><path stroke="#273139" stroke-linecap="round" stroke-linejoin="round" d="m551.828 222.499-17.787 34.185h13.079l21.703-40.054m-3.679-28.267-35.403 68.273"/><path stroke="#273139" stroke-miterlimit="10" d="M575.984 191.616a1.447 1.447 0 1 0 0-2.894 1.447 1.447 0 0 0 0 2.894Z"/><path fill="#CFD7DF" d="m536.248 125.894 5.787-5.78s-1.447-11.558-15.899-15.891l-6.54 6.54"/><path stroke="#273139" stroke-miterlimit="10" d="m536.248 125.894 5.787-5.78s-1.447-11.558-15.899-15.891l-6.54 6.54m3.468 52.843c3.097-3.096-3.288-14.501-14.26-25.473s-22.376-17.356-25.473-14.26 3.288 14.502 14.26 25.474 22.377 17.356 25.473 14.259Zm-32.2-44.252-7.357 4.333"/><path stroke="#273139" stroke-miterlimit="10" d="m523.235 163.43 15.057-25.994a4.8 4.8 0 0 0 .548-3.336c-1.047-5.027-5.616-18.891-24.892-26.215a4.83 4.83 0 0 0-4.209.36l-11.371 6.695"/><path stroke="#273139" stroke-miterlimit="10" d="M518.183 149.706a16.79 16.79 0 0 1-17.346-4.333c-8.665-8.673-3.605-16.618-3.605-16.618"/><path fill="#fff" d="M238.038 169.128v-70.21a5.646 5.646 0 0 1 5.649-5.648h208.365a5.65 5.65 0 0 1 5.648 5.648v22.455"/><path stroke="#273139" stroke-miterlimit="10" d="M238.038 169.128v-70.21a5.646 5.646 0 0 1 5.649-5.648h208.365a5.65 5.65 0 0 1 5.648 5.648v22.455"/><path fill="#fff" d="M457.684 139.7v95.289a5.65 5.65 0 0 1-5.649 5.649H243.687a5.65 5.65 0 0 1-3.994-1.655 5.65 5.65 0 0 1-1.655-3.994v-44.141"/><path stroke="#273139" stroke-miterlimit="10" d="M457.684 139.7v95.289a5.65 5.65 0 0 1-5.649 5.649H243.687a5.65 5.65 0 0 1-3.994-1.655 5.65 5.65 0 0 1-1.655-3.994v-44.141"/><path stroke="#273139" stroke-miterlimit="10" d="M449.73 101.919H245.984v130.054H449.73z"/><path stroke="#273139" stroke-linecap="round" stroke-miterlimit="10" d="M91.995 299.159H14.46v-21.671h75.524"/><path stroke="#050404" stroke-miterlimit="10" d="M313.177 240.638h69.36v36.122"/><path fill="#273139" d="M382.177 241.119h-69.36v13.006h69.36zm-215.093 18.36c-1.316-.817-9.368-15.776-9.899-17.223s-.76-3.899.711-4.488c2.755.924 8.714 12.262 8.714 12.262z"/><path fill="#F8AB59" d="M197.223 418.987h-56.027a22.8 22.8 0 0 1-16.114-6.67 22.77 22.77 0 0 1-6.676-16.112q.002-1.333.164-2.657l19.585-167.231a33.65 33.65 0 0 1 23.968-26.853 33 33 0 0 0 12.212 2.289 33.7 33.7 0 0 0 9.237-1.276 33.6 33.6 0 0 1 21.254 28.913l15.073 164.73a22.795 22.795 0 0 1-20.624 24.769c-.629.065-1.365.098-2.052.098"/><path stroke="#273139" stroke-linecap="round" stroke-miterlimit="10" d="M244.087 259.226c5.845 4.684 6.793 5.902 10.97 9.81m68.306-.361c6.776-1.21 12.613-1.487 18.212 8.085m-87.899-9.204 69.686 1.12m144.131 30.514H231.09"/><path stroke="#273139" stroke-linecap="round" stroke-miterlimit="10" d="m231.18 272.476 11.109 8.73a16.8 16.8 0 0 0 9.147 2.534c25.202-1.569 48.63-1.904 66.687-5.55 0 0 7.814 6.311 14.06-.695h257.918v21.695h-67.03"/><path stroke="#273139" stroke-linecap="round" stroke-miterlimit="10" d="M197.011 210.507a226.7 226.7 0 0 0 48.973 45.498c-9.196 17.632-29.224 23.15-29.224 23.15s-15.531-13.896-30.449-39.033"/><path stroke="#273139" stroke-linecap="round" stroke-linejoin="round" d="M149.191 309.269a127.9 127.9 0 0 1-5.673 63.36l-1.275-1.504m46.912-123.571a179.3 179.3 0 0 0 4.087 69.237m-53.934-106.996a96.4 96.4 0 0 1 61.913 1.594"/><path fill="#fff" stroke="#273139" stroke-linecap="round" stroke-linejoin="round" d="M209.46 167.706a9.434 9.434 0 1 0 0-18.865 9.434 9.434 0 0 0 0 18.865"/><path fill="#273139" d="M202.234 148.848c5.641-.483 11.224-3.425 14.044-8.33s2.281-11.771-1.864-15.621c-4.904-4.521-12.458-3.801-19.03-2.796l-12.964 1.986c-1.55.135-3.059.565-4.447 1.267-3.548 2.069-4.087 7.276-2.264 10.962 4.258 8.592 17.583 13.284 26.525 12.532"/><path stroke="#273139" stroke-linecap="round" stroke-linejoin="round" d="M147.409 109.079a24.16 24.16 0 0 1 13.561 18.392c-.188-8.346 4.185-22.822 11.101-27.49"/><path fill="#fff" stroke="#273139" stroke-miterlimit="10" d="M208.455 158.42a34.06 34.06 0 0 1-25.477 32.971 34.06 34.06 0 0 1-38.324-16.353 2.4 2.4 0 0 1-.262-.441 34.08 34.08 0 0 1-1.193-29.888 34.1 34.1 0 0 1 9.189-12.297 34.08 34.08 0 0 1 29.002-7.323 34.07 34.07 0 0 1 23.602 18.376 34.1 34.1 0 0 1 3.463 14.955Z"/><path fill="#273139" d="M202.986 143.411a37.8 37.8 0 0 1-11.071 26.711 37.8 37.8 0 0 1-26.711 11.071 37.27 37.27 0 0 1-20.583-6.139 2.4 2.4 0 0 1-.261-.441 34.07 34.07 0 0 1 12.566-45.363 34.07 34.07 0 0 1 45.889 10.483c.106 1.226.171 2.428.171 3.678"/><path fill="#FF5959" d="M158.452 125.739a34.04 34.04 0 0 1-4.774 42.343 34 34 0 0 1-2.861 2.534 22.99 22.99 0 0 0 23.314-19.122 22.984 22.984 0 0 0-15.679-25.755"/><path fill="#273139" d="M168.254 145.75a27.38 27.38 0 0 1-16.875 25.319 27.384 27.384 0 1 1-10.542-52.671h.041a27.383 27.383 0 0 1 27.376 27.352"/><path stroke="#273139" stroke-linecap="round" stroke-linejoin="round" d="M170.853 140.142a20.54 20.54 0 0 1-3.27 19.668"/><path stroke="#fff" stroke-linecap="round" stroke-linejoin="round" d="M195.671 143.411a33.43 33.43 0 0 1-21.687 28.382m-43.602-7.234a19.53 19.53 0 0 1-12.497-15.734 19.52 19.52 0 0 1 8.009-18.427"/><path stroke="#273139" stroke-linecap="round" stroke-linejoin="round" d="m212.526 156.049 3.981-3.989m-7.398 13.667 3.981-3.989"/><path stroke="#273139" stroke-linecap="round" stroke-miterlimit="10" d="m141.744 211.389-34.946 39.573s10.831 11.648 24.932 12.874m-23.951-11.238-7.021 8.853s-8.714 10.356 5.452 18.392"/><path stroke="#273139" stroke-miterlimit="10" d="M312.646 241.071v24.213"/><path fill="#fff" stroke="#0F0D0D" stroke-miterlimit="10" d="m221.722 244.782 28.145 133.022c-85.259 63.58-163.292 0-163.292 0l26.82-132.826a21.77 21.77 0 0 1 21.335-17.46h65.698a21.77 21.77 0 0 1 21.294 17.264Z"/></g><path fill="#fff" d="M429 119.117H246.572v89.166H429z"/><path fill="#fff" d="M359.738 156.532a1.006 1.006 0 1 0 0-2.012 1.006 1.006 0 0 0 0 2.012m-33.163 0a1.006 1.006 0 1 0-.002-2.012 1.006 1.006 0 0 0 .002 2.012"/><path fill="#2B2D39" d="M245 101h206v132H245z"/><g opacity=".21"><rect width="29" height="4" x="255" y="117" fill="#4DEB76" rx="2"/><rect width="21" height="4" x="255" y="126" fill="#4DEB76" rx="2"/><rect width="41" height="4" x="255" y="135" fill="#4DEB76" rx="2"/><rect width="13" height="4" x="255" y="143" fill="#4DEB76" rx="2"/><rect width="25" height="4" x="255" y="152" fill="#4DEB76" rx="2"/><rect width="19" height="4" x="255" y="160" fill="#4DEB76" rx="2"/><rect width="29" height="4" x="288" y="117" fill="#ED73BA" rx="2"/><rect width="20" height="4" x="279" y="126" fill="#ED73BA" rx="2"/><rect width="40" height="4" x="302" y="135" fill="#ED73BA" rx="2"/><rect width="14" height="4" x="270" y="143" fill="#ED73BA" rx="2"/><rect width="28" height="4" x="284" y="152" fill="#ED73BA" rx="2"/><rect width="22" height="4" x="277" y="160" fill="#ED73BA" rx="2"/><rect width="29" height="4" x="321" y="117" fill="#E7EF87" rx="2"/><rect width="21" height="4" x="302" y="126" fill="#E7EF87" rx="2"/><rect width="41" height="4" x="348" y="135" fill="#E7EF87" rx="2"/><rect width="13" height="4" x="286" y="143" fill="#E7EF87" rx="2"/><rect width="25" height="4" x="316" y="152" fill="#E7EF87" rx="2"/><rect width="19" height="4" x="302" y="160" fill="#E7EF87" rx="2"/></g><g opacity=".21"><rect width="21" height="4" x="255" y="168" fill="#4DEB76" rx="2"/><rect width="41" height="4" x="255" y="177" fill="#4DEB76" rx="2"/><rect width="13" height="4" x="255" y="185" fill="#4DEB76" rx="2"/><rect width="25" height="4" x="255" y="194" fill="#4DEB76" rx="2"/><rect width="19" height="4" x="255" y="202" fill="#4DEB76" rx="2"/><rect width="20" height="4" x="279" y="168" fill="#ED73BA" rx="2"/><rect width="40" height="4" x="302" y="177" fill="#ED73BA" rx="2"/><rect width="14" height="4" x="270" y="185" fill="#ED73BA" rx="2"/><rect width="28" height="4" x="284" y="194" fill="#ED73BA" rx="2"/><rect width="22" height="4" x="277" y="202" fill="#ED73BA" rx="2"/><rect width="21" height="4" x="302" y="168" fill="#E7EF87" rx="2"/><rect width="41" height="4" x="348" y="177" fill="#E7EF87" rx="2"/><rect width="13" height="4" x="286" y="185" fill="#E7EF87" rx="2"/><rect width="25" height="4" x="316" y="194" fill="#E7EF87" rx="2"/><rect width="19" height="4" x="302" y="202" fill="#E7EF87" rx="2"/></g><path fill="#2B2D39" fill-opacity=".5" d="M245.24 101.37h205.177v131.608H245.24z"/><path fill="#61DAFB" d="M385.219 151.754c0-4.941-6.187-9.623-15.674-12.527 2.189-9.668 1.216-17.361-3.071-19.824-.988-.578-2.143-.851-3.405-.851v3.39c.699 0 1.262.137 1.733.395 2.067 1.186 2.964 5.701 2.265 11.509-.167 1.429-.441 2.934-.775 4.469-2.98-.729-6.233-1.292-9.654-1.657-2.052-2.812-4.181-5.366-6.324-7.601 4.956-4.607 9.608-7.13 12.77-7.13v-3.39c-4.181 0-9.654 2.979-15.187 8.148-5.534-5.138-11.007-8.088-15.188-8.088v3.391c3.147 0 7.814 2.508 12.77 7.084a72 72 0 0 0-6.278 7.586c-3.436.365-6.689.927-9.669 1.672a46 46 0 0 1-.791-4.408c-.714-5.808.168-10.323 2.22-11.524.456-.274 1.049-.395 1.748-.395v-3.39c-1.277 0-2.432.273-3.436.851-4.272 2.463-5.229 10.14-3.025 19.779-9.456 2.918-15.613 7.586-15.613 12.511 0 4.941 6.187 9.624 15.674 12.527-2.189 9.669-1.216 17.362 3.071 19.825.988.577 2.143.851 3.42.851 4.181 0 9.654-2.98 15.188-8.149 5.534 5.139 11.007 8.088 15.187 8.088 1.277 0 2.433-.274 3.436-.851 4.272-2.463 5.23-10.14 3.025-19.779 9.426-2.904 15.583-7.586 15.583-12.512m-19.794-10.14a69 69 0 0 1-2.052 6.005 71 71 0 0 0-1.992-3.648 82 82 0 0 0-2.189-3.558c2.159.319 4.242.715 6.233 1.201m-6.963 16.191a81 81 0 0 1-3.663 5.807 79 79 0 0 1-6.872.304 85 85 0 0 1-6.841-.288 84 84 0 0 1-3.679-5.777 79 79 0 0 1-3.162-6.051 79 79 0 0 1 3.147-6.066 81 81 0 0 1 3.663-5.807 79 79 0 0 1 6.872-.304c2.296 0 4.591.106 6.841.289a84 84 0 0 1 3.679 5.776 79 79 0 0 1 3.162 6.051 85 85 0 0 1-3.147 6.066m4.911-1.976a65 65 0 0 1 2.098 6.05c-1.992.487-4.09.897-6.264 1.216a84 84 0 0 0 2.19-3.603 86 86 0 0 0 1.976-3.663m-15.416 16.221a63 63 0 0 1-4.226-4.865c1.368.061 2.767.106 4.181.106 1.429 0 2.843-.03 4.226-.106a59 59 0 0 1-4.181 4.865m-11.31-8.955a68 68 0 0 1-6.233-1.201 68 68 0 0 1 2.052-6.005 71 71 0 0 0 1.992 3.649 100 100 0 0 0 2.189 3.557m11.234-31.636a63 63 0 0 1 4.227 4.865 94 94 0 0 0-4.181-.107c-1.429 0-2.843.031-4.226.107a59 59 0 0 1 4.18-4.865m-11.25 8.954a86 86 0 0 0-2.189 3.603 86 86 0 0 0-1.976 3.649 65 65 0 0 1-2.098-6.051 74 74 0 0 1 6.263-1.201m-13.758 19.034c-5.382-2.296-8.863-5.306-8.863-7.693s3.481-5.412 8.863-7.692c1.308-.563 2.737-1.064 4.211-1.536.867 2.98 2.007 6.081 3.421 9.259-1.399 3.162-2.524 6.248-3.375 9.213a47 47 0 0 1-4.257-1.551m8.179 21.724c-2.067-1.185-2.964-5.701-2.265-11.508.167-1.429.441-2.934.775-4.47 2.98.73 6.233 1.293 9.654 1.658 2.052 2.812 4.181 5.366 6.324 7.601-4.956 4.606-9.608 7.13-12.77 7.13-.684-.015-1.262-.152-1.718-.411m36.061-11.584c.714 5.807-.168 10.323-2.22 11.524-.456.273-1.049.395-1.748.395-3.147 0-7.814-2.509-12.77-7.085a72 72 0 0 0 6.278-7.586c3.436-.365 6.689-.927 9.669-1.672.35 1.536.623 3.01.791 4.424m5.853-10.14c-1.308.562-2.737 1.064-4.211 1.535-.867-2.979-2.007-6.081-3.421-9.258 1.399-3.162 2.524-6.248 3.375-9.213 1.505.471 2.934.988 4.272 1.551 5.382 2.295 8.863 5.306 8.863 7.692-.015 2.387-3.497 5.412-8.878 7.693"/><path fill="#61DAFB" d="M347.912 158.702a6.947 6.947 0 1 0-.001-13.895 6.947 6.947 0 0 0 .001 13.895m-22.208 56.292v-11.89h4.459q1.37 0 2.299.476.934.477 1.411 1.336.482.853.482 1.991 0 1.144-.488 1.986-.482.836-1.423 1.294-.94.453-2.31.453h-3.176v-1.788h2.886q.8 0 1.312-.221.51-.226.754-.656.25-.435.25-1.068t-.25-1.08a1.6 1.6 0 0 0-.76-.685q-.511-.238-1.318-.238h-1.974v10.09zm6.142-5.387 2.944 5.387h-2.404l-2.891-5.387zm8.218 5.562q-1.341 0-2.316-.558a3.77 3.77 0 0 1-1.492-1.591q-.523-1.032-.523-2.432 0-1.376.523-2.415a3.95 3.95 0 0 1 1.475-1.626q.946-.586 2.223-.586.825 0 1.556.267.738.261 1.301.813.569.551.894 1.405.325.847.325 2.02v.644h-7.31v-1.416h5.295a2.26 2.26 0 0 0-.261-1.074 1.9 1.9 0 0 0-.714-.749 2 2 0 0 0-1.057-.273q-.644 0-1.132.313a2.17 2.17 0 0 0-.76.813 2.3 2.3 0 0 0-.273 1.098v1.236q0 .779.284 1.335.285.552.795.848.512.29 1.196.29.459 0 .831-.127.37-.134.644-.389a1.6 1.6 0 0 0 .412-.633l1.963.22q-.186.779-.709 1.359a3.45 3.45 0 0 1-1.323.894q-.807.314-1.847.314m8.31.005a3.7 3.7 0 0 1-1.527-.302 2.5 2.5 0 0 1-1.068-.905q-.39-.598-.389-1.475 0-.755.278-1.248.28-.493.761-.79a3.9 3.9 0 0 1 1.086-.447q.61-.157 1.259-.226a51 51 0 0 0 1.272-.145q.487-.07.708-.209.227-.146.227-.447v-.035q0-.656-.389-1.016-.39-.36-1.121-.36-.772 0-1.225.337a1.67 1.67 0 0 0-.604.795l-1.962-.279a3.14 3.14 0 0 1 .766-1.358 3.3 3.3 0 0 1 1.307-.825 5 5 0 0 1 1.706-.278q.645 0 1.284.151a3.6 3.6 0 0 1 1.166.499 2.5 2.5 0 0 1 .848.935q.325.591.325 1.48v5.968h-2.02v-1.225h-.07q-.192.372-.54.697a2.6 2.6 0 0 1-.865.517q-.517.192-1.213.191m.546-1.544q.632 0 1.097-.25.464-.255.714-.673a1.7 1.7 0 0 0 .255-.912v-1.05a1 1 0 0 1-.336.151 5 5 0 0 1-.523.122q-.29.051-.575.092l-.493.07a3.7 3.7 0 0 0-.842.209 1.4 1.4 0 0 0-.586.406q-.216.256-.215.662 0 .581.424.877.423.296 1.08.296m10.165 1.539q-1.335 0-2.293-.587a3.9 3.9 0 0 1-1.469-1.62q-.51-1.038-.511-2.392 0-1.358.523-2.397a3.9 3.9 0 0 1 1.474-1.626q.959-.586 2.265-.586 1.085 0 1.921.4a3.3 3.3 0 0 1 1.341 1.121q.5.72.569 1.683h-2.008a1.93 1.93 0 0 0-.581-1.074q-.453-.435-1.213-.435-.645 0-1.132.348-.489.344-.761.987-.267.645-.267 1.545 0 .911.267 1.567.267.65.749 1.005.487.348 1.144.348.464 0 .83-.174a1.66 1.66 0 0 0 .621-.517q.25-.336.343-.819h2.008a3.5 3.5 0 0 1-.557 1.678 3.3 3.3 0 0 1-1.312 1.138q-.83.407-1.951.407m9.999-9.092v1.625h-5.126v-1.625zm-3.861-2.137h2.102v8.372q0 .424.128.65a.7.7 0 0 0 .348.302q.215.082.476.082.198 0 .36-.029.168-.03.256-.053l.354 1.643a5 5 0 0 1-.482.128 4 4 0 0 1-.755.081q-.789.023-1.422-.238a2.2 2.2 0 0 1-1.005-.824q-.366-.558-.36-1.393z"/></svg>