<svg xmlns="http://www.w3.org/2000/svg" xml:space="preserve" viewBox="0 0 16 16"><path d="M13.7 6.5h.5c.3 0 .5.2.5.5v2c0 .3-.2.5-.5.5h-1.6v3.8h1.1c.3 0 .5.2.5.5s-.2.5-.5.5H2.2c-.3 0-.5-.2-.5-.5s.2-.5.5-.5h1.1V9.5H1.7c-.2 0-.5-.2-.5-.5V7c0-.3.2-.5.5-.5h.5V3.3c-.2-.2-.3-.4-.3-.7 0-.5.4-.9.9-.9s.9.4.9.9c0 .3-.2.5-.4.7v3.2h.3c.6-1.7 2.1-3 3.9-3.2v-.4c0-.3.2-.5.5-.5s.5.2.5.5v.4c1.8.2 3.4 1.4 4 3.2h.3V3.3c-.2-.2-.4-.4-.4-.7 0-.5.4-.9.9-.9s.9.4.9.9c0 .3-.2.5-.4.7v3.2zM4.3 8.9V11h2l1.4-1.3c.2-.2.5-.2.7 0L9.8 11h2V8.9zm3.2-4.6v1c0 .3.2.5.5.5s.5-.2.5-.5v-1c1.8.2 3.2 1.8 3.2 3.6H4.3c0-1.8 1.4-3.4 3.2-3.6M2.2 7.5v1.1h1.1V7.5zm2.1 5.8V12h2.2c.1 0 .2 0 .3-.1L8 10.8l1.2 1.1c.1.1.3.1.4.1h2.2v1.3zm8.4-4.8h1.1v-1h-1.1z" style="fill-rule:evenodd;clip-rule:evenodd;fill:var(--color-icon-primary)"/></svg>